



<svg width="21" height="20" viewBox="0 0 21 14" fill="none" xmlns="http://www.w3.org/2000/svg"><g clip-path="url(#a)"><path d="M0 9.293h21v4.224c0 .2-.162.362-.362.362H.362A.362.362 0 0 1 0 13.517V9.293Z" fill="#73AF00"></path><path d="M.362.12h20.276c.2 0 .362.163.362.363v4.224H0V.483C0 .283.162.12.362.12Z" fill="#464655"></path><path d="M21 4.707H0v4.586h21V4.707Z" fill="#C8414B"></path><g fill="#F5F5F5"><path d="M21 4.466H0v.724h21v-.724ZM21 8.81H0v.725h21V8.81Z"></path><path d="M12.439 3.95c.291-.602.595-1.994.595-1.994s-.905 1.1-1.197 1.702a.333.333 0 0 0 .054.369L8.57 10.874l.225.109 3.321-6.847a.333.333 0 0 0 .323-.187Z"></path><path d="M8.561 3.95c-.291-.602-.595-1.994-.595-1.994s.905 1.1 1.196 1.702a.333.333 0 0 1-.053.369l3.321 6.847-.225.109-3.321-6.847a.333.333 0 0 1-.323-.187Z"></path></g><path d="M12.31 7c0 2-1.477 3.62-1.81 3.62-.333 0-1.81-1.62-1.81-3.62s1.477-3.62 1.81-3.62c.333 0 1.81 1.62 1.81 3.62Z" fill="#C8414B"></path><g fill="#464655"><path d="M11.948 8.747A4.606 4.606 0 0 0 12.31 7c0-.634-.149-1.229-.362-1.747A4.608 4.608 0 0 0 11.586 7c0 .634.149 1.229.362 1.747ZM9.052 5.253A4.607 4.607 0 0 0 8.69 7c0 .634.148 1.229.362 1.747A4.607 4.607 0 0 0 9.414 7c0-.634-.149-1.229-.362-1.747Z"></path></g><g fill="#F5F5F5"><path d="M10.5 7.543c.2 0 .362-.243.362-.543 0-.3-.162-.543-.362-.543-.2 0-.362.243-.362.543 0 .3.162.543.362.543ZM10.554 3.38v3.077c.099-.206.274-.813.274-1.539s-.175-1.333-.274-1.539ZM10.446 3.38c-.099.205-.274.812-.274 1.538s.175 1.334.274 1.539V3.379ZM10.554 7.543v3.077c.099-.205.274-.812.274-1.538s-.175-1.334-.274-1.539ZM10.446 7.543c-.099.205-.274.813-.274 1.539s.175 1.333.274 1.538V7.543Z"></path></g></g><defs><clipPath id="a"><path fill="#fff" d="M0 0h21v14H0z"></path></clipPath></defs></svg>