 <svg width="92" height="22" viewBox="0 0 92 22" fill="none" xmlns="http://www.w3.org/2000/svg"><path d="M.007 10.712h10.032L7.892 12.86H.007v3.2h4.684L0 20.751l1.006 1.006 4.69-4.692v4.685h3.201v-7.885l2.134-2.133V21.75h4.267V6.445H.007v4.267Z" fill="#0BCE5A"></path><path d="m65.03 17.454 2.765-1.168c.524 1.661 1.72 3.042 3.87 3.042 1.599 0 2.674-.922 2.674-2.028 0-3.349-8.634-1.168-8.634-7.036 0-2.427 2.12-4.24 5.469-4.24 2.919 0 5.377 1.536 6.053 3.81L74.463 11c-.4-1.536-1.844-2.396-3.258-2.396-1.475 0-2.397.583-2.397 1.598 0 2.98 8.696.707 8.696 7.067 0 2.673-2.335 4.732-5.838 4.732-3.78 0-5.93-2.335-6.636-4.548ZM78.634 17.454l2.765-1.168c.525 1.661 1.72 3.042 3.872 3.042 1.597 0 2.673-.922 2.673-2.028 0-3.349-8.634-1.168-8.634-7.036 0-2.427 2.12-4.24 5.47-4.24 2.918 0 5.376 1.536 6.052 3.81L88.067 11c-.4-1.536-1.844-2.396-3.257-2.396-1.474 0-2.397.583-2.397 1.598 0 2.98 8.696.707 8.696 7.067 0 2.673-2.336 4.732-5.839 4.732-3.778 0-5.93-2.335-6.636-4.548ZM63.257 12.107v9.648h-3.285V19.39c-.89 1.566-2.797 2.61-4.854 2.61-3.073 0-5.193-1.935-5.193-4.577 0-3.042 2.365-4.67 7.128-5.158l2.92-.31v-.217c0-1.905-1.322-3.072-3.35-3.072-1.874 0-3.195 1.106-3.41 2.95l-3.01-.553c.491-3.042 3.134-5.04 6.42-5.04 3.93 0 6.634 2.212 6.634 6.084Zm-3.285 2.98v-.646l-2.95.339c-2.519.276-3.81 1.198-3.81 2.55 0 1.229 1.015 2.09 2.581 2.09 2.606 0 4.145-1.813 4.18-4.333ZM47.101 9.158c-2.273 0-4.27 2.027-4.27 6.819v5.776h-3.35V6.27h3.35v2.95c.83-1.844 2.857-3.196 4.732-3.196.584 0 1.26.088 1.72.277L49.1 9.53c-.553-.25-1.291-.372-1.998-.372ZM25.096 19.787v1.967h-3.35V0h3.35v8.204c.921-1.29 2.734-2.186 4.731-2.186 4.67 0 7.343 3.322 7.343 7.989s-2.673 7.989-7.405 7.989c-2.058.004-3.932-.918-4.67-2.209Zm8.725-5.776c0-3.073-1.782-5.07-4.486-5.07-2.704 0-4.486 1.996-4.486 5.07 0 3.042 1.783 5.07 4.486 5.07s4.486-2.027 4.486-5.07Z" fill="#fff"></path></svg> 